<mxfile host="65bd71144e">

    <diagram id="rMTWrDqUTopNDsXFbmmQ" name="Page-1">

        <mxGraphModel dx="1941" dy="845" grid="1" gridSize="10" guides="1" tooltips="1" connect="1" arrows="1" fold="1" page="1" pageScale="1" pageWidth="827" pageHeight="1169" math="0" shadow="0">

            <root>

                <mxCell id="0"/>

                <mxCell id="1" parent="0"/>

                <mxCell id="2" value="" style="rounded=0;whiteSpace=wrap;html=1;" vertex="1" parent="1">

                    <mxGeometry x="160" y="80" width="450" height="640" as="geometry"/>

                </mxCell>

                <mxCell id="3" value="" style="rounded=0;whiteSpace=wrap;html=1;" vertex="1" parent="1">

                    <mxGeometry x="620" y="80" width="160" height="640" as="geometry"/>

                </mxCell>

                <mxCell id="4" value="DMZ" style="text;html=1;strokeColor=none;fillColor=none;align=center;verticalAlign=middle;whiteSpace=wrap;rounded=0;" vertex="1" parent="1">

                    <mxGeometry x="350" y="100" width="40" height="20" as="geometry"/>

                </mxCell>

                <mxCell id="5" value="Private" style="text;html=1;strokeColor=none;fillColor=none;align=center;verticalAlign=middle;whiteSpace=wrap;rounded=0;" vertex="1" parent="1">

                    <mxGeometry x="660" y="100" width="80" height="20" as="geometry"/>

                </mxCell>

                <mxCell id="26" style="edgeStyle=orthogonalEdgeStyle;rounded=0;orthogonalLoop=1;jettySize=auto;html=1;exitX=1;exitY=0.5;exitDx=0;exitDy=0;entryX=0;entryY=0.5;entryDx=0;entryDy=0;" edge="1" parent="1" source="9" target="13">

                    <mxGeometry relative="1" as="geometry">

                        <Array as="points">

                            <mxPoint x="470" y="280"/>

                            <mxPoint x="470" y="360"/>

                        </Array>

                    </mxGeometry>

                </mxCell>

                <mxCell id="9" value="web01" style="rounded=0;whiteSpace=wrap;html=1;" vertex="1" parent="1">

                    <mxGeometry x="340" y="260" width="120" height="40" as="geometry"/>

                </mxCell>

                <mxCell id="27" style="edgeStyle=orthogonalEdgeStyle;rounded=0;orthogonalLoop=1;jettySize=auto;html=1;exitX=1;exitY=0.5;exitDx=0;exitDy=0;entryX=0;entryY=0.5;entryDx=0;entryDy=0;" edge="1" parent="1" source="10" target="13">

                    <mxGeometry relative="1" as="geometry"/>

                </mxCell>

                <mxCell id="28" style="edgeStyle=orthogonalEdgeStyle;rounded=0;orthogonalLoop=1;jettySize=auto;html=1;exitX=1;exitY=0.5;exitDx=0;exitDy=0;entryX=0;entryY=0.5;entryDx=0;entryDy=0;" edge="1" parent="1" source="10" target="14">

                    <mxGeometry relative="1" as="geometry">

                        <Array as="points">

                            <mxPoint x="470" y="360"/>

                            <mxPoint x="470" y="440"/>

                        </Array>

                    </mxGeometry>

                </mxCell>

                <mxCell id="10" value="web02" style="rounded=0;whiteSpace=wrap;html=1;" vertex="1" parent="1">

                    <mxGeometry x="340" y="340" width="120" height="40" as="geometry"/>

                </mxCell>

                <mxCell id="29" style="edgeStyle=orthogonalEdgeStyle;rounded=0;orthogonalLoop=1;jettySize=auto;html=1;exitX=1;exitY=0.5;exitDx=0;exitDy=0;entryX=0;entryY=0.5;entryDx=0;entryDy=0;" edge="1" parent="1" source="11" target="13">

                    <mxGeometry relative="1" as="geometry">

                        <Array as="points">

                            <mxPoint x="470" y="440"/>

                            <mxPoint x="470" y="360"/>

                        </Array>

                    </mxGeometry>

                </mxCell>

                <mxCell id="11" value="web03" style="rounded=0;whiteSpace=wrap;html=1;" vertex="1" parent="1">

                    <mxGeometry x="340" y="420" width="120" height="40" as="geometry"/>

                </mxCell>

                <mxCell id="30" style="edgeStyle=orthogonalEdgeStyle;rounded=0;orthogonalLoop=1;jettySize=auto;html=1;exitX=1;exitY=0.5;exitDx=0;exitDy=0;entryX=0;entryY=0.5;entryDx=0;entryDy=0;" edge="1" parent="1" source="12" target="14">

                    <mxGeometry relative="1" as="geometry">

                        <Array as="points">

                            <mxPoint x="470" y="520"/>

                            <mxPoint x="470" y="440"/>

                        </Array>

                    </mxGeometry>

                </mxCell>

                <mxCell id="38" style="edgeStyle=orthogonalEdgeStyle;rounded=0;orthogonalLoop=1;jettySize=auto;html=1;exitX=1;exitY=0.5;exitDx=0;exitDy=0;entryX=0;entryY=0.5;entryDx=0;entryDy=0;" edge="1" parent="1" source="12" target="14">

                    <mxGeometry relative="1" as="geometry">

                        <Array as="points">

                            <mxPoint x="470" y="520"/>

                            <mxPoint x="470" y="440"/>

                        </Array>

                    </mxGeometry>

                </mxCell>

                <mxCell id="12" value="web04" style="rounded=0;whiteSpace=wrap;html=1;" vertex="1" parent="1">

                    <mxGeometry x="340" y="500" width="120" height="40" as="geometry"/>

                </mxCell>

                <mxCell id="31" style="edgeStyle=orthogonalEdgeStyle;rounded=0;orthogonalLoop=1;jettySize=auto;html=1;exitX=1;exitY=0.5;exitDx=0;exitDy=0;entryX=0;entryY=0.5;entryDx=0;entryDy=0;" edge="1" parent="1" source="13" target="16">

                    <mxGeometry relative="1" as="geometry"/>

                </mxCell>

                <mxCell id="13" value="app01" style="rounded=0;whiteSpace=wrap;html=1;" vertex="1" parent="1">

                    <mxGeometry x="480" y="340" width="120" height="40" as="geometry"/>

                </mxCell>

                <mxCell id="14" value="app02" style="rounded=0;whiteSpace=wrap;html=1;" vertex="1" parent="1">

                    <mxGeometry x="480" y="420" width="120" height="40" as="geometry"/>

                </mxCell>

                <mxCell id="15" value="db01" style="rounded=0;whiteSpace=wrap;html=1;" vertex="1" parent="1">

                    <mxGeometry x="640" y="340" width="120" height="40" as="geometry"/>

                </mxCell>

                <mxCell id="16" value="db02" style="rounded=0;whiteSpace=wrap;html=1;" vertex="1" parent="1">

                    <mxGeometry x="640" y="420" width="120" height="40" as="geometry"/>

                </mxCell>

                <mxCell id="22" style="edgeStyle=orthogonalEdgeStyle;rounded=0;orthogonalLoop=1;jettySize=auto;html=1;exitX=1;exitY=0.5;exitDx=0;exitDy=0;entryX=0;entryY=0.5;entryDx=0;entryDy=0;" edge="1" parent="1" source="18" target="10">

                    <mxGeometry relative="1" as="geometry">

                        <Array as="points">

                            <mxPoint x="330" y="350"/>

                            <mxPoint x="330" y="360"/>

                        </Array>

                    </mxGeometry>

                </mxCell>

                <mxCell id="25" style="edgeStyle=orthogonalEdgeStyle;rounded=0;orthogonalLoop=1;jettySize=auto;html=1;exitX=1;exitY=0.5;exitDx=0;exitDy=0;entryX=0;entryY=0.5;entryDx=0;entryDy=0;" edge="1" parent="1" source="18" target="9">

                    <mxGeometry relative="1" as="geometry">

                        <Array as="points">

                            <mxPoint x="330" y="350"/>

                            <mxPoint x="330" y="280"/>

                        </Array>

                    </mxGeometry>

                </mxCell>

                <mxCell id="18" value="loadbalancer" style="rounded=0;whiteSpace=wrap;html=1;" vertex="1" parent="1">

                    <mxGeometry x="170" y="330" width="120" height="40" as="geometry"/>

                </mxCell>

                <mxCell id="39" style="edgeStyle=orthogonalEdgeStyle;rounded=0;orthogonalLoop=1;jettySize=auto;html=1;exitX=0.875;exitY=0.5;exitDx=0;exitDy=0;exitPerimeter=0;entryX=0;entryY=0.5;entryDx=0;entryDy=0;" edge="1" parent="1" source="19" target="34">

                    <mxGeometry relative="1" as="geometry">

                        <Array as="points">

                            <mxPoint x="150" y="400"/>

                            <mxPoint x="150" y="470"/>

                        </Array>

                    </mxGeometry>

                </mxCell>

                <mxCell id="40" style="edgeStyle=orthogonalEdgeStyle;rounded=0;orthogonalLoop=1;jettySize=auto;html=1;exitX=0.875;exitY=0.5;exitDx=0;exitDy=0;exitPerimeter=0;entryX=0;entryY=0.5;entryDx=0;entryDy=0;" edge="1" parent="1" source="19" target="18">

                    <mxGeometry relative="1" as="geometry"/>

                </mxCell>

                <mxCell id="19" value="Internet" style="ellipse;shape=cloud;whiteSpace=wrap;html=1;" vertex="1" parent="1">

                    <mxGeometry x="10" y="360" width="120" height="80" as="geometry"/>

                </mxCell>

                <mxCell id="32" value="gcloud.ktbizmeet.com&lt;br&gt;gcloud.ktbizmeet.com:8444&lt;br&gt;gcloud.ktbizmeet.com:8443" style="text;html=1;strokeColor=none;fillColor=none;align=left;verticalAlign=middle;whiteSpace=wrap;rounded=0;" vertex="1" parent="1">

                    <mxGeometry x="170" y="270" width="150" height="70" as="geometry"/>

                </mxCell>

                <mxCell id="36" style="edgeStyle=orthogonalEdgeStyle;rounded=0;orthogonalLoop=1;jettySize=auto;html=1;exitX=1;exitY=0.5;exitDx=0;exitDy=0;entryX=0;entryY=0.5;entryDx=0;entryDy=0;" edge="1" parent="1" source="34" target="12">

                    <mxGeometry relative="1" as="geometry"/>

                </mxCell>

                <mxCell id="37" style="edgeStyle=orthogonalEdgeStyle;rounded=0;orthogonalLoop=1;jettySize=auto;html=1;exitX=1;exitY=0.5;exitDx=0;exitDy=0;entryX=0;entryY=0.5;entryDx=0;entryDy=0;" edge="1" parent="1" source="34" target="11">

                    <mxGeometry relative="1" as="geometry"/>

                </mxCell>

                <mxCell id="34" value="loadbalancer" style="rounded=0;whiteSpace=wrap;html=1;" vertex="1" parent="1">

                    <mxGeometry x="170" y="450" width="120" height="40" as="geometry"/>

                </mxCell>

                <mxCell id="35" value="gcloud-mv.ktbizmeet.com" style="text;html=1;strokeColor=none;fillColor=none;align=left;verticalAlign=middle;whiteSpace=wrap;rounded=0;" vertex="1" parent="1">

                    <mxGeometry x="170" y="420" width="150" height="30" as="geometry"/>

                </mxCell>

            </root>

        </mxGraphModel>

    </diagram>

</mxfile>